<mxfile host="app.diagrams.net" modified="2024-05-27T11:04:40.335Z" agent="Mozilla/5.0 (Windows NT 10.0; Win64; x64) AppleWebKit/537.36 (KHTML, like Gecko) Chrome/124.0.0.0 Safari/537.36" etag="VgW9nqaxN8A2D6KC1rmh" version="24.4.8" type="github">
  <diagram name="Страница — 1" id="rIlWWbe10Ax3GFMxgoC-">
    <mxGraphModel dx="1509" dy="821" grid="1" gridSize="10" guides="1" tooltips="1" connect="1" arrows="1" fold="1" page="1" pageScale="1" pageWidth="827" pageHeight="1169" math="0" shadow="0">
      <root>
        <mxCell id="0" />
        <mxCell id="1" parent="0" />
        <mxCell id="HHi1Jkbsixi5mN6OjThm-23" value="&lt;font style=&quot;font-size: 18px;&quot;&gt;Sequence Diagram&amp;nbsp;&lt;/font&gt;&lt;div&gt;&lt;font size=&quot;3&quot;&gt;(Login Modul)&lt;/font&gt;&lt;/div&gt;" style="text;html=1;align=center;verticalAlign=middle;resizable=0;points=[];autosize=1;strokeColor=none;fillColor=none;perimeterSpacing=0;" vertex="1" parent="1">
          <mxGeometry x="55" y="120" width="180" height="50" as="geometry" />
        </mxCell>
        <mxCell id="HHi1Jkbsixi5mN6OjThm-24" value="User" style="shape=umlActor;verticalLabelPosition=bottom;verticalAlign=top;html=1;outlineConnect=0;" vertex="1" parent="1">
          <mxGeometry x="70" y="240" width="30" height="60" as="geometry" />
        </mxCell>
        <mxCell id="HHi1Jkbsixi5mN6OjThm-27" value="loginPage: Login&lt;div&gt;Page&lt;/div&gt;" style="html=1;whiteSpace=wrap;" vertex="1" parent="1">
          <mxGeometry x="290" y="245" width="110" height="50" as="geometry" />
        </mxCell>
        <mxCell id="HHi1Jkbsixi5mN6OjThm-32" value="" style="endArrow=none;dashed=1;html=1;rounded=0;" edge="1" parent="1" source="HHi1Jkbsixi5mN6OjThm-43" target="HHi1Jkbsixi5mN6OjThm-24">
          <mxGeometry width="50" height="50" relative="1" as="geometry">
            <mxPoint x="85" y="630" as="sourcePoint" />
            <mxPoint x="110" y="350" as="targetPoint" />
          </mxGeometry>
        </mxCell>
        <mxCell id="HHi1Jkbsixi5mN6OjThm-33" value="" style="endArrow=none;dashed=1;html=1;strokeWidth=2;rounded=0;entryX=0.5;entryY=1;entryDx=0;entryDy=0;" edge="1" parent="1" source="HHi1Jkbsixi5mN6OjThm-40" target="HHi1Jkbsixi5mN6OjThm-27">
          <mxGeometry width="50" height="50" relative="1" as="geometry">
            <mxPoint x="345" y="630" as="sourcePoint" />
            <mxPoint x="470" y="340" as="targetPoint" />
          </mxGeometry>
        </mxCell>
        <mxCell id="HHi1Jkbsixi5mN6OjThm-34" value="authenfication:&lt;div&gt;Authenfication Module&lt;/div&gt;" style="html=1;whiteSpace=wrap;" vertex="1" parent="1">
          <mxGeometry x="520" y="245" width="110" height="50" as="geometry" />
        </mxCell>
        <mxCell id="HHi1Jkbsixi5mN6OjThm-37" value="" style="endArrow=none;dashed=1;html=1;strokeWidth=2;rounded=0;entryX=0.5;entryY=1;entryDx=0;entryDy=0;" edge="1" parent="1">
          <mxGeometry width="50" height="50" relative="1" as="geometry">
            <mxPoint x="575" y="380" as="sourcePoint" />
            <mxPoint x="574.52" y="290" as="targetPoint" />
          </mxGeometry>
        </mxCell>
        <mxCell id="HHi1Jkbsixi5mN6OjThm-41" value="Enter a username" style="html=1;verticalAlign=bottom;startArrow=oval;endArrow=block;startSize=8;curved=0;rounded=0;entryX=0;entryY=0;entryDx=0;entryDy=5;" edge="1" parent="1" source="HHi1Jkbsixi5mN6OjThm-43">
          <mxGeometry relative="1" as="geometry">
            <mxPoint x="80" y="334.52" as="sourcePoint" />
            <mxPoint x="340" y="334.52" as="targetPoint" />
          </mxGeometry>
        </mxCell>
        <mxCell id="HHi1Jkbsixi5mN6OjThm-42" value="" style="endArrow=none;dashed=1;html=1;rounded=0;" edge="1" parent="1" source="HHi1Jkbsixi5mN6OjThm-53" target="HHi1Jkbsixi5mN6OjThm-43">
          <mxGeometry width="50" height="50" relative="1" as="geometry">
            <mxPoint x="85" y="630" as="sourcePoint" />
            <mxPoint x="85" y="300" as="targetPoint" />
          </mxGeometry>
        </mxCell>
        <mxCell id="HHi1Jkbsixi5mN6OjThm-43" value="" style="html=1;points=[[0,0,0,0,5],[0,1,0,0,-5],[1,0,0,0,5],[1,1,0,0,-5]];perimeter=orthogonalPerimeter;outlineConnect=0;targetShapes=umlLifeline;portConstraint=eastwest;newEdgeStyle={&quot;curved&quot;:0,&quot;rounded&quot;:0};" vertex="1" parent="1">
          <mxGeometry x="80" y="330" width="10" height="35" as="geometry" />
        </mxCell>
        <mxCell id="HHi1Jkbsixi5mN6OjThm-44" value="" style="endArrow=none;dashed=1;html=1;dashPattern=1 3;strokeWidth=2;rounded=0;entryX=0.5;entryY=1;entryDx=0;entryDy=0;" edge="1" parent="1" source="HHi1Jkbsixi5mN6OjThm-55" target="HHi1Jkbsixi5mN6OjThm-40">
          <mxGeometry width="50" height="50" relative="1" as="geometry">
            <mxPoint x="345" y="630" as="sourcePoint" />
            <mxPoint x="345" y="295" as="targetPoint" />
          </mxGeometry>
        </mxCell>
        <mxCell id="HHi1Jkbsixi5mN6OjThm-40" value="" style="html=1;points=[[0,0,0,0,5],[0,1,0,0,-5],[1,0,0,0,5],[1,1,0,0,-5]];perimeter=orthogonalPerimeter;outlineConnect=0;targetShapes=umlLifeline;portConstraint=eastwest;newEdgeStyle={&quot;curved&quot;:0,&quot;rounded&quot;:0};" vertex="1" parent="1">
          <mxGeometry x="340" y="330" width="10" height="40" as="geometry" />
        </mxCell>
        <mxCell id="HHi1Jkbsixi5mN6OjThm-46" value="Enter a password&lt;span style=&quot;white-space: pre;&quot;&gt;&#x9;&lt;/span&gt;" style="html=1;verticalAlign=bottom;startArrow=oval;endArrow=block;startSize=8;curved=0;rounded=0;entryX=0;entryY=0;entryDx=0;entryDy=5;" edge="1" parent="1" source="HHi1Jkbsixi5mN6OjThm-53">
          <mxGeometry relative="1" as="geometry">
            <mxPoint x="85" y="400" as="sourcePoint" />
            <mxPoint x="340" y="400" as="targetPoint" />
          </mxGeometry>
        </mxCell>
        <mxCell id="HHi1Jkbsixi5mN6OjThm-47" value="Click on the Login&amp;nbsp; button" style="html=1;verticalAlign=bottom;startArrow=oval;endArrow=block;startSize=8;curved=0;rounded=0;" edge="1" parent="1" source="HHi1Jkbsixi5mN6OjThm-51" target="HHi1Jkbsixi5mN6OjThm-48">
          <mxGeometry relative="1" as="geometry">
            <mxPoint x="80" y="450" as="sourcePoint" />
            <mxPoint x="340" y="450" as="targetPoint" />
          </mxGeometry>
        </mxCell>
        <mxCell id="HHi1Jkbsixi5mN6OjThm-52" value="" style="endArrow=none;dashed=1;html=1;rounded=0;exitX=0.093;exitY=0.992;exitDx=0;exitDy=0;exitPerimeter=0;" edge="1" parent="1" source="HHi1Jkbsixi5mN6OjThm-89" target="HHi1Jkbsixi5mN6OjThm-51">
          <mxGeometry width="50" height="50" relative="1" as="geometry">
            <mxPoint x="85" y="630" as="sourcePoint" />
            <mxPoint x="85" y="350" as="targetPoint" />
          </mxGeometry>
        </mxCell>
        <mxCell id="HHi1Jkbsixi5mN6OjThm-51" value="" style="html=1;points=[[0,0,0,0,5],[0,1,0,0,-5],[1,0,0,0,5],[1,1,0,0,-5]];perimeter=orthogonalPerimeter;outlineConnect=0;targetShapes=umlLifeline;portConstraint=eastwest;newEdgeStyle={&quot;curved&quot;:0,&quot;rounded&quot;:0};" vertex="1" parent="1">
          <mxGeometry x="80" y="430" width="10" height="40" as="geometry" />
        </mxCell>
        <mxCell id="HHi1Jkbsixi5mN6OjThm-56" value="" style="endArrow=none;dashed=1;html=1;dashPattern=1 3;strokeWidth=2;rounded=0;entryX=0.5;entryY=1;entryDx=0;entryDy=0;" edge="1" parent="1" source="HHi1Jkbsixi5mN6OjThm-48" target="HHi1Jkbsixi5mN6OjThm-55">
          <mxGeometry width="50" height="50" relative="1" as="geometry">
            <mxPoint x="345" y="630" as="sourcePoint" />
            <mxPoint x="345" y="370" as="targetPoint" />
          </mxGeometry>
        </mxCell>
        <mxCell id="HHi1Jkbsixi5mN6OjThm-55" value="" style="html=1;points=[[0,0,0,0,5],[0,1,0,0,-5],[1,0,0,0,5],[1,1,0,0,-5]];perimeter=orthogonalPerimeter;outlineConnect=0;targetShapes=umlLifeline;portConstraint=eastwest;newEdgeStyle={&quot;curved&quot;:0,&quot;rounded&quot;:0};" vertex="1" parent="1">
          <mxGeometry x="340" y="380" width="10" height="40" as="geometry" />
        </mxCell>
        <mxCell id="HHi1Jkbsixi5mN6OjThm-57" value="" style="endArrow=none;dashed=1;html=1;dashPattern=1 3;strokeWidth=2;rounded=0;entryX=0.5;entryY=1;entryDx=0;entryDy=0;" edge="1" parent="1" source="HHi1Jkbsixi5mN6OjThm-77" target="HHi1Jkbsixi5mN6OjThm-48">
          <mxGeometry width="50" height="50" relative="1" as="geometry">
            <mxPoint x="345" y="630" as="sourcePoint" />
            <mxPoint x="345" y="420" as="targetPoint" />
          </mxGeometry>
        </mxCell>
        <mxCell id="HHi1Jkbsixi5mN6OjThm-68" style="edgeStyle=orthogonalEdgeStyle;rounded=0;orthogonalLoop=1;jettySize=auto;html=1;curved=0;" edge="1" parent="1" source="HHi1Jkbsixi5mN6OjThm-48" target="HHi1Jkbsixi5mN6OjThm-66">
          <mxGeometry relative="1" as="geometry">
            <Array as="points">
              <mxPoint x="560" y="450" />
              <mxPoint x="560" y="450" />
            </Array>
          </mxGeometry>
        </mxCell>
        <mxCell id="HHi1Jkbsixi5mN6OjThm-70" value="Send user login info" style="edgeLabel;html=1;align=center;verticalAlign=middle;resizable=0;points=[];" vertex="1" connectable="0" parent="HHi1Jkbsixi5mN6OjThm-68">
          <mxGeometry x="0.2485" y="1" relative="1" as="geometry">
            <mxPoint x="-17" y="-9" as="offset" />
          </mxGeometry>
        </mxCell>
        <mxCell id="HHi1Jkbsixi5mN6OjThm-48" value="" style="html=1;points=[[0,0,0,0,5],[0,1,0,0,-5],[1,0,0,0,5],[1,1,0,0,-5]];perimeter=orthogonalPerimeter;outlineConnect=0;targetShapes=umlLifeline;portConstraint=eastwest;newEdgeStyle={&quot;curved&quot;:0,&quot;rounded&quot;:0};" vertex="1" parent="1">
          <mxGeometry x="340" y="440" width="10" height="40" as="geometry" />
        </mxCell>
        <mxCell id="HHi1Jkbsixi5mN6OjThm-67" value="" style="endArrow=none;dashed=1;html=1;strokeWidth=2;rounded=0;entryX=0.5;entryY=1;entryDx=0;entryDy=0;exitX=0.828;exitY=1;exitDx=0;exitDy=0;exitPerimeter=0;" edge="1" parent="1" source="HHi1Jkbsixi5mN6OjThm-72" target="HHi1Jkbsixi5mN6OjThm-66">
          <mxGeometry width="50" height="50" relative="1" as="geometry">
            <mxPoint x="574.52" y="625" as="sourcePoint" />
            <mxPoint x="574.52" y="290" as="targetPoint" />
          </mxGeometry>
        </mxCell>
        <mxCell id="HHi1Jkbsixi5mN6OjThm-79" style="edgeStyle=orthogonalEdgeStyle;rounded=0;orthogonalLoop=1;jettySize=auto;html=1;curved=0;dashed=1;" edge="1" parent="1" source="HHi1Jkbsixi5mN6OjThm-66" target="HHi1Jkbsixi5mN6OjThm-77">
          <mxGeometry relative="1" as="geometry">
            <Array as="points">
              <mxPoint x="410" y="500" />
              <mxPoint x="410" y="500" />
            </Array>
          </mxGeometry>
        </mxCell>
        <mxCell id="HHi1Jkbsixi5mN6OjThm-80" value="User login accepted" style="edgeLabel;html=1;align=center;verticalAlign=middle;resizable=0;points=[];" vertex="1" connectable="0" parent="HHi1Jkbsixi5mN6OjThm-79">
          <mxGeometry x="0.3835" y="-2" relative="1" as="geometry">
            <mxPoint x="22" y="-18" as="offset" />
          </mxGeometry>
        </mxCell>
        <mxCell id="HHi1Jkbsixi5mN6OjThm-86" style="edgeStyle=orthogonalEdgeStyle;rounded=0;orthogonalLoop=1;jettySize=auto;html=1;curved=0;dashed=1;" edge="1" parent="1" source="HHi1Jkbsixi5mN6OjThm-66" target="HHi1Jkbsixi5mN6OjThm-84">
          <mxGeometry relative="1" as="geometry">
            <Array as="points">
              <mxPoint x="390" y="600" />
              <mxPoint x="390" y="600" />
            </Array>
          </mxGeometry>
        </mxCell>
        <mxCell id="HHi1Jkbsixi5mN6OjThm-87" value="User login denied" style="edgeLabel;html=1;align=center;verticalAlign=middle;resizable=0;points=[];" vertex="1" connectable="0" parent="HHi1Jkbsixi5mN6OjThm-86">
          <mxGeometry x="-0.11" y="-2" relative="1" as="geometry">
            <mxPoint x="-22" y="12" as="offset" />
          </mxGeometry>
        </mxCell>
        <mxCell id="HHi1Jkbsixi5mN6OjThm-66" value="" style="html=1;points=[[0,0,0,0,5],[0,1,0,0,-5],[1,0,0,0,5],[1,1,0,0,-5]];perimeter=orthogonalPerimeter;outlineConnect=0;targetShapes=umlLifeline;portConstraint=eastwest;newEdgeStyle={&quot;curved&quot;:0,&quot;rounded&quot;:0};" vertex="1" parent="1">
          <mxGeometry x="570" y="350" width="10" height="270" as="geometry" />
        </mxCell>
        <mxCell id="HHi1Jkbsixi5mN6OjThm-72" value="alt" style="shape=umlFrame;whiteSpace=wrap;html=1;pointerEvents=0;" vertex="1" parent="1">
          <mxGeometry x="20" y="470" width="670" height="200" as="geometry" />
        </mxCell>
        <mxCell id="HHi1Jkbsixi5mN6OjThm-73" value="(correct)" style="text;html=1;align=center;verticalAlign=middle;resizable=0;points=[];autosize=1;strokeColor=none;fillColor=none;" vertex="1" parent="1">
          <mxGeometry x="15" y="498" width="70" height="30" as="geometry" />
        </mxCell>
        <mxCell id="HHi1Jkbsixi5mN6OjThm-74" value="(incorrect)" style="text;html=1;align=center;verticalAlign=middle;resizable=0;points=[];autosize=1;strokeColor=none;fillColor=none;" vertex="1" parent="1">
          <mxGeometry x="10" y="570" width="80" height="30" as="geometry" />
        </mxCell>
        <mxCell id="HHi1Jkbsixi5mN6OjThm-75" value="" style="line;strokeWidth=1;fillColor=none;align=left;verticalAlign=middle;spacingTop=-1;spacingLeft=3;spacingRight=3;rotatable=0;labelPosition=right;points=[];portConstraint=eastwest;strokeColor=inherit;dashed=1;" vertex="1" parent="1">
          <mxGeometry x="20" y="550" width="670" height="8" as="geometry" />
        </mxCell>
        <mxCell id="HHi1Jkbsixi5mN6OjThm-76" value="Validate user&amp;nbsp;&lt;div&gt;&lt;span style=&quot;background-color: initial;&quot;&gt;data&lt;/span&gt;&lt;/div&gt;" style="text;html=1;align=center;verticalAlign=middle;resizable=0;points=[];autosize=1;strokeColor=none;fillColor=none;" vertex="1" parent="1">
          <mxGeometry x="600" y="410" width="100" height="40" as="geometry" />
        </mxCell>
        <mxCell id="HHi1Jkbsixi5mN6OjThm-78" value="" style="endArrow=none;dashed=1;html=1;dashPattern=1 3;strokeWidth=2;rounded=0;entryX=0.5;entryY=1;entryDx=0;entryDy=0;" edge="1" parent="1" source="HHi1Jkbsixi5mN6OjThm-84" target="HHi1Jkbsixi5mN6OjThm-77">
          <mxGeometry width="50" height="50" relative="1" as="geometry">
            <mxPoint x="345" y="630" as="sourcePoint" />
            <mxPoint x="345" y="480" as="targetPoint" />
          </mxGeometry>
        </mxCell>
        <mxCell id="HHi1Jkbsixi5mN6OjThm-77" value="" style="html=1;points=[[0,0,0,0,5],[0,1,0,0,-5],[1,0,0,0,5],[1,1,0,0,-5]];perimeter=orthogonalPerimeter;outlineConnect=0;targetShapes=umlLifeline;portConstraint=eastwest;newEdgeStyle={&quot;curved&quot;:0,&quot;rounded&quot;:0};" vertex="1" parent="1">
          <mxGeometry x="340" y="490" width="10" height="60" as="geometry" />
        </mxCell>
        <mxCell id="HHi1Jkbsixi5mN6OjThm-81" style="edgeStyle=orthogonalEdgeStyle;rounded=0;orthogonalLoop=1;jettySize=auto;html=1;curved=0;elbow=vertical;" edge="1" parent="1" source="HHi1Jkbsixi5mN6OjThm-77" target="HHi1Jkbsixi5mN6OjThm-77">
          <mxGeometry relative="1" as="geometry" />
        </mxCell>
        <mxCell id="HHi1Jkbsixi5mN6OjThm-82" value="Redirect to the&lt;div&gt;main page&lt;/div&gt;" style="text;html=1;align=center;verticalAlign=middle;resizable=0;points=[];autosize=1;strokeColor=none;fillColor=none;" vertex="1" parent="1">
          <mxGeometry x="363" y="500" width="100" height="40" as="geometry" />
        </mxCell>
        <mxCell id="HHi1Jkbsixi5mN6OjThm-83" style="edgeStyle=orthogonalEdgeStyle;rounded=0;orthogonalLoop=1;jettySize=auto;html=1;curved=0;" edge="1" parent="1" source="HHi1Jkbsixi5mN6OjThm-66" target="HHi1Jkbsixi5mN6OjThm-66">
          <mxGeometry relative="1" as="geometry">
            <mxPoint x="590" y="450" as="targetPoint" />
            <Array as="points">
              <mxPoint x="600" y="400" />
              <mxPoint x="600" y="452" />
            </Array>
          </mxGeometry>
        </mxCell>
        <mxCell id="HHi1Jkbsixi5mN6OjThm-85" value="" style="endArrow=none;dashed=1;html=1;dashPattern=1 3;strokeWidth=2;rounded=0;entryX=0.5;entryY=1;entryDx=0;entryDy=0;" edge="1" parent="1" source="HHi1Jkbsixi5mN6OjThm-72" target="HHi1Jkbsixi5mN6OjThm-84">
          <mxGeometry width="50" height="50" relative="1" as="geometry">
            <mxPoint x="345" y="630" as="sourcePoint" />
            <mxPoint x="345" y="550" as="targetPoint" />
            <Array as="points">
              <mxPoint x="345" y="660" />
            </Array>
          </mxGeometry>
        </mxCell>
        <mxCell id="HHi1Jkbsixi5mN6OjThm-91" style="edgeStyle=orthogonalEdgeStyle;rounded=0;orthogonalLoop=1;jettySize=auto;html=1;curved=0;dashed=1;" edge="1" parent="1" source="HHi1Jkbsixi5mN6OjThm-84" target="HHi1Jkbsixi5mN6OjThm-89">
          <mxGeometry relative="1" as="geometry">
            <Array as="points">
              <mxPoint x="150" y="600" />
              <mxPoint x="150" y="600" />
            </Array>
          </mxGeometry>
        </mxCell>
        <mxCell id="HHi1Jkbsixi5mN6OjThm-92" value="Clear fiends" style="edgeLabel;html=1;align=center;verticalAlign=middle;resizable=0;points=[];" vertex="1" connectable="0" parent="HHi1Jkbsixi5mN6OjThm-91">
          <mxGeometry x="0.069" y="-6" relative="1" as="geometry">
            <mxPoint y="21" as="offset" />
          </mxGeometry>
        </mxCell>
        <mxCell id="HHi1Jkbsixi5mN6OjThm-84" value="" style="html=1;points=[[0,0,0,0,5],[0,1,0,0,-5],[1,0,0,0,5],[1,1,0,0,-5]];perimeter=orthogonalPerimeter;outlineConnect=0;targetShapes=umlLifeline;portConstraint=eastwest;newEdgeStyle={&quot;curved&quot;:0,&quot;rounded&quot;:0};" vertex="1" parent="1">
          <mxGeometry x="340" y="590" width="10" height="40" as="geometry" />
        </mxCell>
        <mxCell id="HHi1Jkbsixi5mN6OjThm-90" value="" style="endArrow=none;dashed=1;html=1;rounded=0;" edge="1" parent="1" target="HHi1Jkbsixi5mN6OjThm-89">
          <mxGeometry width="50" height="50" relative="1" as="geometry">
            <mxPoint x="80" y="670" as="sourcePoint" />
            <mxPoint x="82" y="470" as="targetPoint" />
            <Array as="points">
              <mxPoint x="80" y="660" />
            </Array>
          </mxGeometry>
        </mxCell>
        <mxCell id="HHi1Jkbsixi5mN6OjThm-89" value="" style="html=1;points=[[0,0,0,0,5],[0,1,0,0,-5],[1,0,0,0,5],[1,1,0,0,-5]];perimeter=orthogonalPerimeter;outlineConnect=0;targetShapes=umlLifeline;portConstraint=eastwest;newEdgeStyle={&quot;curved&quot;:0,&quot;rounded&quot;:0};" vertex="1" parent="1">
          <mxGeometry x="80" y="590" width="10" height="50" as="geometry" />
        </mxCell>
        <mxCell id="HHi1Jkbsixi5mN6OjThm-94" value="" style="endArrow=none;dashed=1;html=1;rounded=0;" edge="1" parent="1" source="HHi1Jkbsixi5mN6OjThm-51" target="HHi1Jkbsixi5mN6OjThm-53">
          <mxGeometry width="50" height="50" relative="1" as="geometry">
            <mxPoint x="85" y="430" as="sourcePoint" />
            <mxPoint x="85" y="350" as="targetPoint" />
          </mxGeometry>
        </mxCell>
        <mxCell id="HHi1Jkbsixi5mN6OjThm-53" value="" style="html=1;points=[[0,0,0,0,5],[0,1,0,0,-5],[1,0,0,0,5],[1,1,0,0,-5]];perimeter=orthogonalPerimeter;outlineConnect=0;targetShapes=umlLifeline;portConstraint=eastwest;newEdgeStyle={&quot;curved&quot;:0,&quot;rounded&quot;:0};" vertex="1" parent="1">
          <mxGeometry x="80" y="380" width="10" height="40" as="geometry" />
        </mxCell>
        <mxCell id="HHi1Jkbsixi5mN6OjThm-95" value="dataBase: Data&lt;div&gt;Base&lt;/div&gt;" style="shape=umlLifeline;perimeter=lifelinePerimeter;whiteSpace=wrap;html=1;container=1;dropTarget=0;collapsible=0;recursiveResize=0;outlineConnect=0;portConstraint=eastwest;newEdgeStyle={&quot;curved&quot;:0,&quot;rounded&quot;:0};size=50;" vertex="1" parent="1">
          <mxGeometry x="750" y="245" width="120" height="425" as="geometry" />
        </mxCell>
        <mxCell id="HHi1Jkbsixi5mN6OjThm-96" value="" style="html=1;points=[[0,0,0,0,5],[0,1,0,0,-5],[1,0,0,0,5],[1,1,0,0,-5]];perimeter=orthogonalPerimeter;outlineConnect=0;targetShapes=umlLifeline;portConstraint=eastwest;newEdgeStyle={&quot;curved&quot;:0,&quot;rounded&quot;:0};" vertex="1" parent="HHi1Jkbsixi5mN6OjThm-95">
          <mxGeometry x="55" y="105" width="10" height="80" as="geometry" />
        </mxCell>
        <mxCell id="HHi1Jkbsixi5mN6OjThm-101" style="edgeStyle=orthogonalEdgeStyle;rounded=0;orthogonalLoop=1;jettySize=auto;html=1;curved=0;elbow=horizontal;exitX=1;exitY=0;exitDx=0;exitDy=5;exitPerimeter=0;" edge="1" parent="HHi1Jkbsixi5mN6OjThm-95" source="HHi1Jkbsixi5mN6OjThm-96" target="HHi1Jkbsixi5mN6OjThm-96">
          <mxGeometry relative="1" as="geometry" />
        </mxCell>
        <mxCell id="HHi1Jkbsixi5mN6OjThm-97" style="edgeStyle=orthogonalEdgeStyle;rounded=0;orthogonalLoop=1;jettySize=auto;html=1;curved=0;dashed=1;entryX=1;entryY=0.148;entryDx=0;entryDy=0;entryPerimeter=0;" edge="1" parent="1" source="HHi1Jkbsixi5mN6OjThm-96" target="HHi1Jkbsixi5mN6OjThm-66">
          <mxGeometry relative="1" as="geometry">
            <mxPoint x="590" y="390" as="targetPoint" />
            <Array as="points" />
          </mxGeometry>
        </mxCell>
        <mxCell id="HHi1Jkbsixi5mN6OjThm-102" value="Get request from database" style="edgeLabel;html=1;align=center;verticalAlign=middle;resizable=0;points=[];" vertex="1" connectable="0" parent="HHi1Jkbsixi5mN6OjThm-97">
          <mxGeometry x="-0.0715" relative="1" as="geometry">
            <mxPoint y="-10" as="offset" />
          </mxGeometry>
        </mxCell>
        <mxCell id="HHi1Jkbsixi5mN6OjThm-99" style="edgeStyle=orthogonalEdgeStyle;rounded=0;orthogonalLoop=1;jettySize=auto;html=1;curved=0;entryX=0;entryY=0;entryDx=0;entryDy=5;entryPerimeter=0;" edge="1" parent="1" source="HHi1Jkbsixi5mN6OjThm-66" target="HHi1Jkbsixi5mN6OjThm-96">
          <mxGeometry relative="1" as="geometry">
            <Array as="points">
              <mxPoint x="630" y="355" />
              <mxPoint x="630" y="355" />
            </Array>
          </mxGeometry>
        </mxCell>
        <mxCell id="HHi1Jkbsixi5mN6OjThm-103" value="Search password in datebase&lt;div&gt;&amp;nbsp;by login&lt;/div&gt;" style="edgeLabel;html=1;align=center;verticalAlign=middle;resizable=0;points=[];" vertex="1" connectable="0" parent="HHi1Jkbsixi5mN6OjThm-99">
          <mxGeometry x="0.2816" y="-3" relative="1" as="geometry">
            <mxPoint x="-15" y="-18" as="offset" />
          </mxGeometry>
        </mxCell>
        <mxCell id="HHi1Jkbsixi5mN6OjThm-104" value="Find&amp;nbsp;&lt;div&gt;password&lt;/div&gt;" style="text;html=1;align=center;verticalAlign=middle;resizable=0;points=[];autosize=1;strokeColor=none;fillColor=none;" vertex="1" parent="1">
          <mxGeometry x="842" y="370" width="70" height="40" as="geometry" />
        </mxCell>
        <mxCell id="HHi1Jkbsixi5mN6OjThm-106" value="" style="shape=umlLifeline;perimeter=lifelinePerimeter;whiteSpace=wrap;html=1;container=1;dropTarget=0;collapsible=0;recursiveResize=0;outlineConnect=0;portConstraint=eastwest;newEdgeStyle={&quot;curved&quot;:0,&quot;rounded&quot;:0};participant=umlActor;" vertex="1" parent="1">
          <mxGeometry x="1250" y="245" width="20" height="375" as="geometry" />
        </mxCell>
        <mxCell id="HHi1Jkbsixi5mN6OjThm-107" value="Юзер" style="text;html=1;align=center;verticalAlign=middle;resizable=0;points=[];autosize=1;strokeColor=none;fillColor=none;" vertex="1" parent="1">
          <mxGeometry x="1235" y="218" width="50" height="30" as="geometry" />
        </mxCell>
        <mxCell id="HHi1Jkbsixi5mN6OjThm-108" value="product page" style="shape=umlLifeline;perimeter=lifelinePerimeter;whiteSpace=wrap;html=1;container=1;dropTarget=0;collapsible=0;recursiveResize=0;outlineConnect=0;portConstraint=eastwest;newEdgeStyle={&quot;curved&quot;:0,&quot;rounded&quot;:0};" vertex="1" parent="1">
          <mxGeometry x="1400" y="240" width="100" height="380" as="geometry" />
        </mxCell>
        <mxCell id="HHi1Jkbsixi5mN6OjThm-109" value="shoping cart" style="shape=umlLifeline;perimeter=lifelinePerimeter;whiteSpace=wrap;html=1;container=1;dropTarget=0;collapsible=0;recursiveResize=0;outlineConnect=0;portConstraint=eastwest;newEdgeStyle={&quot;curved&quot;:0,&quot;rounded&quot;:0};" vertex="1" parent="1">
          <mxGeometry x="1550" y="240" width="100" height="380" as="geometry" />
        </mxCell>
        <mxCell id="HHi1Jkbsixi5mN6OjThm-110" value="inventory system" style="shape=umlLifeline;perimeter=lifelinePerimeter;whiteSpace=wrap;html=1;container=1;dropTarget=0;collapsible=0;recursiveResize=0;outlineConnect=0;portConstraint=eastwest;newEdgeStyle={&quot;curved&quot;:0,&quot;rounded&quot;:0};" vertex="1" parent="1">
          <mxGeometry x="1690" y="240" width="100" height="380" as="geometry" />
        </mxCell>
      </root>
    </mxGraphModel>
  </diagram>
</mxfile>
